<?xml version="1.0" encoding="utf-8"?>
<!-- Generator: Adobe Illustrator 26.4.1, SVG Export Plug-In . SVG Version: 6.00 Build 0)  -->
<svg version="1.1" id="Слой_1" xmlns="http://www.w3.org/2000/svg" xmlns:xlink="http://www.w3.org/1999/xlink" x="0px" y="0px"
	 viewBox="0 0 28 28" style="enable-background:new 0 0 28 28;" xml:space="preserve">
<style type="text/css">
	.st0{clip-path:url(#SVGID_00000060709988077941499770000012007478932323934341_);}
	.st1{fill:#FF3000;}
</style>
<g>
	<g>
		<defs>
			<rect id="SVGID_1_" width="28" height="28"/>
		</defs>
		<clipPath id="SVGID_00000029742282079615323280000016247310595749989250_">
			<use xlink:href="#SVGID_1_"  style="overflow:visible;"/>
		</clipPath>
		<g style="clip-path:url(#SVGID_00000029742282079615323280000016247310595749989250_);">
			<path id="Vector" class="st1" d="M14,6.4c0.9,0,1.8,0.4,2.4,1s1,1.5,1,2.4c0,0.5-0.1,0.9-0.2,1.4c-0.2,0.4-0.4,0.8-0.7,1.1
				s-0.7,0.6-1.1,0.7c-0.4,0.2-0.9,0.2-1.3,0.2c-0.9,0-1.8-0.4-2.4-1s-1-1.5-1-2.4c0-0.9,0.3-1.8,1-2.4C12.2,6.8,13.1,6.4,14,6.4z
				 M14,0.2c2.6,0,5,1,6.8,2.8c1.8,1.8,2.8,4.2,2.8,6.8c0,7.2-9.6,17.8-9.6,17.8S4.4,17,4.4,9.8c0-2.6,1-5,2.8-6.8
				C9,1.3,11.4,0.2,14,0.2z M14,3c-1.8,0-3.6,0.7-4.9,2s-2,3-2,4.9c0,1.4,0,4.2,6.9,13.4c6.9-9.2,6.9-12,6.9-13.4
				c0-1.8-0.7-3.6-2-4.9C17.6,3.8,15.8,3,14,3z"/>
		</g>
	</g>
</g>
</svg>
