<?xml version="1.0" encoding="utf-8"?>
<!-- Generator: Adobe Illustrator 26.4.1, SVG Export Plug-In . SVG Version: 6.00 Build 0)  -->
<svg version="1.1" id="Слой_1" xmlns="http://www.w3.org/2000/svg" xmlns:xlink="http://www.w3.org/1999/xlink" x="0px" y="0px"
	 viewBox="0 0 50 50" style="enable-background:new 0 0 50 50;" xml:space="preserve">
<style type="text/css">
	.st0{fill:#FFFFFF;fill-opacity:0;}
	.st1{clip-path:url(#SVGID_00000098208251464091576910000001916561409858139018_);}
	.st2{fill:#FFFFFF;}
</style>
<rect id="mdi:checkbox-outline" x="2" y="2" class="st0" width="46" height="46"/>
<g>
	<g>
		<g>
			<defs>
				<rect id="SVGID_1_" x="2" y="2" width="46" height="46"/>
			</defs>
			<clipPath id="SVGID_00000127758315990015700590000013673643343498448526_">
				<use xlink:href="#SVGID_1_"  style="overflow:visible;"/>
			</clipPath>
			<g style="clip-path:url(#SVGID_00000127758315990015700590000013673643343498448526_);">
				<path id="Vector" class="st2" d="M41.5,3.4h-33c-1.2,0-2.4,0.5-3.4,1.4C4.3,5.7,3.8,6.9,3.8,8.1v33c0,1.2,0.5,2.4,1.4,3.4
					c0.9,0.9,2.1,1.4,3.4,1.4h33c1.2,0,2.4-0.5,3.4-1.4c0.9-0.9,1.4-2.1,1.4-3.4v-33c0-1.2-0.5-2.4-1.4-3.4
					C43.9,3.9,42.7,3.4,41.5,3.4z M41.5,8.1v33h-33v-33H41.5z M20.3,36.4L10.9,27l3.4-3.4l6.1,6.1l15.5-15.5l3.4,3.4L20.3,36.4z"/>
			</g>
		</g>
	</g>
</g>
</svg>
