<?xml version="1.0" encoding="utf-8"?>
<!-- Generator: Adobe Illustrator 26.4.1, SVG Export Plug-In . SVG Version: 6.00 Build 0)  -->
<svg version="1.1" id="Слой_1" xmlns="http://www.w3.org/2000/svg" xmlns:xlink="http://www.w3.org/1999/xlink" x="0px" y="0px"
	 viewBox="0 0 115 68" style="enable-background:new 0 0 115 68;" xml:space="preserve">
<style type="text/css">
	.st0{fill:none;stroke:#FFFFFF;stroke-miterlimit:10;}
	.st1{fill:none;stroke:#000000;}
</style>
<g>
	<g>
		<path class="st0" d="M97.6,8.8c-0.3-0.6-0.7-0.7-1.3-0.7c-6.5,0-12.9,0-19.4,0c-0.6,0-0.9,0.3-1.2,0.7c-3,3.9-6,7.7-8.9,11.7
			c-0.5,0.7-1,0.9-1.9,0.9c-17.1,0-34.2,0-51.3-0.1c-1.6,0-2.4,0.4-3,1.9C8.3,29,5.8,34.8,3.3,40.5c-0.3,0.6-0.2,0.9,0.5,1.1
			c2.6,0.9,5.2,1.7,7.8,2.8s5.3,1.5,8.1,1.5c16.6-0.1,33.3,0,49.9,0c0.6,0,0.9-0.1,1.1-0.8c3.2-10.5,6.5-20.9,9.7-31.4
			c0.3-0.8,0.6-1.1,1.5-1.1c5.9,0.1,11.7,0,17.7,0C98.9,11.3,98.2,10.1,97.6,8.8z"/>
		<path class="st0" d="M75.5,57c-0.4,2.1-2,3.5-4.1,3.5c-4.9,0.1-9.8,0.1-14.7,0c-2.3,0-4.1-2-4.2-4.3c0-1.3,0-2.5,0-3.8
			c0-2.5,1.9-4.5,4.4-4.5c2.4,0,4.8,0,7.2,0c2.2,0,4.5,0,6.7,0c2.9,0,4.8,1.8,4.7,4.7C75.6,54.1,75.8,55.5,75.5,57z"/>
		<path class="st0" d="M91.4,49.4c-4.7,0-8.5,3.9-8.5,8.6s3.9,8.5,8.6,8.5s8.5-3.9,8.5-8.6C100,53.1,96.2,49.4,91.4,49.4z
			 M91.4,62.9c-2.7,0-5-2.3-5-5s2.3-5,5-5s4.9,2.3,5,5C96.5,60.6,94.2,62.9,91.4,62.9z"/>
		<path class="st0" d="M30.6,49.4c-4.7,0-8.5,3.8-8.6,8.5c0,4.7,3.9,8.5,8.6,8.6c4.6,0,8.5-3.9,8.6-8.6
			C39.3,53.3,35.4,49.4,30.6,49.4z M30.6,62.9c-2.7,0-5-2.3-5-5s2.3-5,5.1-5c2.7,0,5,2.3,5,5.1C35.6,60.7,33.4,62.9,30.6,62.9z"/>
		<path class="st0" d="M59.4,53.8c0,1.1,0,2.2,0,3.3c0,0.5-0.1,0.7-0.6,0.7c-1.7,0-1.7,0-1.7-1.7c0-1.9,0-3.7,0-5.6
			c0-0.5,0.1-0.8,0.7-0.8c1.6,0,1.6,0,1.6,1.6C59.4,52.2,59.4,53,59.4,53.8z"/>
		<path class="st0" d="M50.6,59c0,0.7-0.2,0.9-0.8,0.8c-2.7,0-5.4,0-8.1,0c-0.4,0-0.8,0-0.7-0.6c0.4-4.7-1.5-8.1-5.6-10.3
			c0,0,0-0.1-0.1-0.2c1.1,0,2.1,0,3.1,0c3.8,0,7.6,0,11.5,0c0.6,0,0.9,0.1,0.9,0.8C50.5,52.6,50.5,55.8,50.6,59z"/>
		<path class="st0" d="M20.2,59.2c0,0.5-0.1,0.6-0.6,0.6c-1.6,0-3.3,0-4.9,0c-0.5,0-0.7-0.1-0.6-0.6c0-3.3,0-6.7,0-10.1
			c0-0.3,0-0.5,0.4-0.5c3.8,0,7.6,0,11.7,0C21.8,51,19.8,54.5,20.2,59.2z"/>
		<path class="st0" d="M80.3,45.1c0,0.6-0.2,0.8-0.8,0.8c-1.7,0-3.5,0-5.2,0c-0.6,0-0.8-0.1-0.9-0.8c-0.6-2.8,0.9-4.7,2.8-6.4
			c0.8-0.8,1.1-1.6,1.1-2.7c-0.1-1.9,0-3.9,0-5.8c0-0.5,0.1-0.8,0.7-0.7c0.8,0.1,1.8-0.3,2.3,0.2c0.4,0.4,0.1,1.4,0.1,2.2
			c0,2,0,3.9,0,5.9l0,0C80.3,40.2,80.3,42.6,80.3,45.1z"/>
		<path class="st0" d="M107.5,56.3c-0.6,0-1.2,0-1.8,0c-0.4,0-0.6-0.3-0.6-0.7s0.2-0.7,0.6-0.7c1.2,0,2.5,0,3.7,0
			c0.3,0,0.6,0.2,0.6,0.7s-0.3,0.7-0.7,0.7C108.7,56.4,108.1,56.4,107.5,56.3C107.5,56.4,107.5,56.3,107.5,56.3z"/>
		<path class="st0" d="M107.5,51.5c0.6,0,1.2,0,1.8,0c0.4,0,0.7,0.2,0.7,0.7s-0.3,0.7-0.6,0.7c-1.2,0-2.4,0-3.7,0
			c-0.4,0-0.6-0.3-0.6-0.7s0.3-0.7,0.6-0.7C106.4,51.5,106.9,51.5,107.5,51.5z"/>
		<path class="st0" d="M69.6,53.5c0,1.1,0,2.1,0,3.2c0,0.6-0.2,0.8-0.8,0.8c-1.6,0-1.6,0-1.6-1.5c0-1.9,0-3.8,0-5.7
			c0-0.7,0.2-0.9,0.9-0.8c1.5,0,1.5,0,1.5,1.5C69.6,51.8,69.6,52.7,69.6,53.5z"/>
		<path class="st0" d="M92.6,39.2c0,0.6,0,1.1,0,1.7c0,0.3,0,0.7,0,1c0,1.2,0,1.2-1.3,1.2c-0.8,0-0.9-0.3-0.9-1s0-1.4,0-2.1
			c0-1.6,0-1.6,1.6-1.5C92.5,38.6,92.7,38.7,92.6,39.2z"/>
		<path class="st0" d="M111.8,35.8c0-0.4,0-0.7-0.1-1.1c-1.8-6.1-3.5-12.3-5.2-18.4c-0.1-0.5-0.3-0.8-1-0.8c-7.5,0-14.9,0-22.4,0
			c-0.8,0-0.9,0.2-0.9,1c0,5.2,0,10.4,0,15.6l0,0v7.8c0,2.6,0,5.2,0,7.9c0,0.8-0.3,0.9-0.9,0.9c-1,0-2,0-3,0c-0.4,0-0.7,0-0.7,0.6
			c0,3.3,0,6.6,0,10c0,0.5,0.1,0.7,0.6,0.6c0.9,0,1.8,0,2.8,0c0.6,0,0.7-0.1,0.6-0.7c-0.3-1.5,0-2.9,0.4-4.3c1.4-5,6.5-7.8,11.6-6.7
			c5,1,8.1,5.1,8,10.3c0,0.6,0.2,1.4,0.8,1.4c3,0,5.6,0,8.6,0c0.7,0,0.7-0.3,0.7-0.8C111.8,51.3,111.8,43.5,111.8,35.8z"/>
		<path class="st0" d="M91.3,33.9c-0.7,0-0.8-0.2-0.8-0.8c0-4.1,0-8.2,0-12.3c0-0.7,0.2-0.8,0.8-0.8c4.5,0,8.9,0,13.4,0
			c0.4,0,0.8-0.1,0.9,0.5c1.1,4.4,2.3,8.7,3.4,13.1c0,0.1,0,0.2,0,0.3h-3.2C100.9,33.8,96.1,33.8,91.3,33.9z"/>
		<path class="st0" d="M72.6,49.8c0.7,0,1.3,0.5,1.3,1.2s-0.6,1.3-1.2,1.3c-0.7,0-1.3-0.5-1.3-1.2C71.3,50.4,71.9,49.8,72.6,49.8z"
			/>
		<path class="st0" d="M65.5,19c-0.1-0.8-0.1-1.6,0-2.5c0.1-1-0.4-1.6-1.2-2c-0.5-0.2-1.1-0.4-1.6-0.5c-0.2,0-0.5-0.1-0.6-0.4
			c-0.2-1.5-1.4-2-2.6-2.5c-0.9-0.4-1.9-0.6-3-0.6c-0.4,0-0.6-0.1-0.6-0.6c0-0.9-0.5-1.4-1.3-1.8c-1.1-0.6-2.1-0.3-3.2,0.2
			C51,5.1,50.2,3.6,48.5,3s-3,0.2-4.1,1.7c0.2-1.4-0.1-1.8-1.2-2.1c-0.5-0.1-1-0.2-1.4,0c-1.1,0.6-2,0-2.8-0.5
			c-1.2-0.8-1.7-0.7-2.8,0.2C36,2.4,35.8,2.7,35.6,3c-1.1,0.9-2.1,1.9-3.5,2.2c-1.7,0.3-3,1.2-3.8,2.8c-0.5,1-1.3,1.5-2.4,1.6
			c-1.4,0.2-2.6,0.8-3.2,2.1c-0.3,0.6-0.5,0.7-1.2,0.5c-1.5-0.5-2.9,0.7-2.7,2.1c0.1,0.7-0.1,0.9-0.6,1.2c-0.4,0.3-0.9,0.4-1.4,0.5
			c-0.8,0.1-1.6,0.2-2.4,0.6c-0.4,0.2-0.8,0.6-0.4,1c0.7,0.7,0.1,1-0.3,1.3c-0.3,0.2-0.6,0.5-1.1,0.9H14c10.7,0,21.4,0,32.1,0
			c6.2,0,12.4,0,18.6,0C65.3,19.8,65.5,19.7,65.5,19z"/>
	</g>
	<g>
		<path class="st1" d="M26.6,29.9c-1.1-0.3-2.2-0.4-3.3-0.3c-1.1,0.1-2.1,0.5-3.1,1c-0.9,0.5-1.7,1.3-2.4,2.2
			c-0.7,0.9-1.1,1.9-1.3,3.1c-0.1,0.6,0,1.2,0.3,1.8s0.8,1,1.5,1.2c0.4,0.1,0.9,0.1,1.3,0.2c0.5,0,1,0,1.5-0.1
			c0.6-0.1,1.2-0.3,1.9-0.5c0.7-0.2,1.5-0.6,2.4-1c-0.2,0.6-0.4,1-0.6,1.4s-0.3,0.8-0.5,1.1s-0.4,0.7-0.6,1.1
			c-0.2,0.4-0.5,0.8-0.8,1.3c-0.6,0.3-1.3,0.6-2.1,0.7c-0.8,0.1-1.4,0.2-2,0.3c-1.3,0-2.4-0.2-3.4-0.6s-1.8-1-2.4-1.7
			c-0.6-0.7-1.1-1.6-1.4-2.6c-0.3-1-0.4-2.1-0.2-3.3c0.2-1.3,0.5-2.5,1-3.6s1.2-2.2,2-3.1s1.7-1.7,2.7-2.4c1-0.7,2.1-1.2,3.3-1.5
			c0.8-0.2,1.5-0.4,2.3-0.5s1.5-0.1,2.2-0.2c0.7,0,1.4,0,2.1,0.1s1.3,0.1,1.8,0.2c-0.3,0.7-0.5,1.3-0.7,1.8s-0.4,0.9-0.5,1.3
			c-0.2,0.4-0.3,0.8-0.5,1.2C27,28.8,26.8,29.3,26.6,29.9z"/>
		<path class="st1" d="M26.4,42.8c0.6-1.7,1.2-3.3,1.7-4.9c0.6-1.6,1.1-3.1,1.7-4.7c0.6-1.5,1.2-3.1,1.8-4.6c0.6-1.5,1.3-3,2-4.6
			c1-0.1,1.9-0.1,2.7-0.1s1.7,0,2.7,0.1c0,0.6,0.1,1.3,0.1,2s0.1,1.4,0.1,2.1c0.1,0.7,0.1,1.4,0.2,2.1c0.1,0.7,0.1,1.4,0.2,2
			c0.8-1.3,1.6-2.6,2.3-4c0.8-1.4,1.5-2.8,2.3-4c0.5-0.1,1-0.1,1.4-0.2s0.9,0,1.4,0c0.4,0,0.8,0,1.3,0c0.4,0,0.9,0,1.4,0.1
			c-0.2,1.5-0.4,3-0.6,4.6c-0.2,1.6-0.4,3.2-0.6,4.8c-0.2,1.6-0.4,3.2-0.5,4.7c-0.2,1.6-0.3,3.1-0.5,4.5c-0.8,0-1.6,0-2.4,0
			c-0.7,0-1.5,0.1-2.4,0.1c0-0.7,0.1-1.4,0.1-2.2s0.1-1.6,0.1-2.4c0-0.8,0.1-1.6,0.1-2.4c0-0.8,0.1-1.5,0.1-2.2
			c-0.8,1.5-1.7,3-2.5,4.6s-1.7,3.1-2.6,4.6c-0.3,0-0.6,0-0.8,0s-0.4,0-0.6,0c-0.2,0-0.4,0-0.6,0c-0.2,0-0.5,0-0.8,0.1
			c-0.1-0.7-0.1-1.5-0.2-2.2c0.1-0.9,0-1.7,0-2.5s-0.1-1.6-0.1-2.3c0-0.8,0-1.5,0-2.2c-0.8,1.7-1.5,3.3-2,4.8s-1.1,3-1.6,4.4
			c-0.8-0.1-1.6-0.1-2.4-0.1C28,42.8,27.2,42.8,26.4,42.8z"/>
		<path class="st1" d="M69.5,24c-0.9,1.6-1.7,3.1-2.6,4.6c-0.8,1.5-1.7,3-2.5,4.5c-0.8,1.5-1.7,3.1-2.5,4.7
			c-0.9,1.6-1.8,3.3-2.7,5.1c-0.9-0.1-1.8-0.1-2.7-0.1c-0.8,0-1.6,0-2.4,0.1c0.3-0.7,0.7-1.4,1.1-2.3c0.4-0.8,0.8-1.7,1.3-2.6
			c-0.2,0-0.4,0-0.7,0s-0.5,0-0.7,0c-0.1-0.5-0.2-1.3-0.3-2.3s-0.3-2.2-0.4-3.5c-0.1-1.3-0.2-2.7-0.4-4.1c-0.1-1.5-0.2-2.9-0.2-4.2
			c0.4-0.1,0.9-0.1,1.4-0.1s1,0,1.5,0s1,0,1.5,0s0.9,0.1,1.4,0.1c-0.1,0.7-0.1,1.4-0.1,2.1s0,1.5,0,2.2s0,1.5,0,2.2s0.1,1.4,0.1,2
			c0.3-0.7,0.7-1.4,1.1-2.2c0.4-0.7,0.7-1.5,1.1-2.2c0.4-0.7,0.7-1.4,1-2.1s0.7-1.3,1-1.8c1-0.1,2-0.2,3-0.2
			C67.6,23.9,68.6,23.9,69.5,24z"/>
	</g>
</g>
</svg>
