<?xml version="1.0" encoding="utf-8"?>
<!-- Generator: Adobe Illustrator 26.4.1, SVG Export Plug-In . SVG Version: 6.00 Build 0)  -->
<svg version="1.1" id="Слой_1" xmlns="http://www.w3.org/2000/svg" xmlns:xlink="http://www.w3.org/1999/xlink" x="0px" y="0px"
	 viewBox="0 0 24 24" style="enable-background:new 0 0 24 24;" xml:space="preserve">
<style type="text/css">
	.st0{clip-path:url(#SVGID_00000049209679583382520510000017416205777524074374_);}
</style>
<g>
	<g>
		<g>
			<defs>
				<rect id="SVGID_1_" x="0.6" y="0.6" width="22.8" height="22.8"/>
			</defs>
			<clipPath id="SVGID_00000094586850128091231620000000095493185169219215_">
				<use xlink:href="#SVGID_1_"  style="overflow:visible;"/>
			</clipPath>
			<g style="clip-path:url(#SVGID_00000094586850128091231620000000095493185169219215_);">
				<path id="Vector" d="M12,6.1c0.7,0,1.4,0.3,1.9,0.8s0.8,1.2,0.8,1.9c0,0.4-0.1,0.7-0.2,1.1c-0.2,0.3-0.3,0.6-0.6,0.9
					c-0.2,0.2-0.5,0.5-0.9,0.6c-0.3,0.2-0.7,0.2-1.1,0.2c-0.7,0-1.4-0.3-1.9-0.8S9.2,9.6,9.2,8.9C9.2,8.2,9.5,7.4,10,7
					C10.6,6.3,11.3,6.1,12,6.1z M12,1.2c2,0,3.9,0.8,5.3,2.2s2.2,3.3,2.2,5.4c0,5.7-7.6,14-7.6,14S4.4,14.4,4.4,8.7
					c0-2,0.8-3.9,2.2-5.4S10,1.2,12,1.2z M12,3.3c-1.4,0-2.8,0.5-3.8,1.6c-1,1-1.6,2.4-1.6,3.8c0,1.1,0,3.3,5.4,10.5
					c5.4-7.2,5.4-9.4,5.4-10.5c0-1.4-0.6-2.8-1.6-3.8S13.4,3.3,12,3.3z"/>
			</g>
		</g>
	</g>
</g>
</svg>
