<?xml version="1.0" encoding="utf-8"?>
<!-- Generator: Adobe Illustrator 26.4.1, SVG Export Plug-In . SVG Version: 6.00 Build 0)  -->
<svg version="1.1" id="Слой_1" xmlns="http://www.w3.org/2000/svg" xmlns:xlink="http://www.w3.org/1999/xlink" x="0px" y="0px"
	 viewBox="0 0 70 41" style="enable-background:new 0 0 70 41;" xml:space="preserve">
<style type="text/css">
	.st0{fill:none;stroke:#000000;stroke-width:0.6;stroke-miterlimit:10;}
	.st1{fill:none;stroke:#FF3000;stroke-width:0.6;}
</style>
<g>
	<g>
		<path class="st0" d="M59.7,5c-0.2-0.4-0.4-0.4-0.8-0.4c-4,0-7.9,0-11.9,0c-0.4,0-0.6,0.2-0.8,0.4c-1.8,2.4-3.7,4.8-5.5,7.2
			c-0.3,0.4-0.6,0.6-1.2,0.6c-10.5,0-21,0-31.6,0c-1,0-1.4,0.3-1.8,1.2c-1.4,3.6-3,7.1-4.5,10.6c-0.2,0.4-0.1,0.6,0.3,0.7
			c1.6,0.5,3.2,1.1,4.8,1.7c1.6,0.7,3.2,0.9,5,0.9c10.2-0.1,20.5,0,30.7,0c0.4,0,0.6-0.1,0.7-0.5c2-6.4,4-12.9,6-19.3
			c0.2-0.5,0.3-0.7,0.9-0.7c3.6,0,7.2,0,10.9,0C60.5,6.5,60,5.8,59.7,5z"/>
		<path class="st0" d="M46.1,34.6c-0.3,1.3-1.2,2.2-2.5,2.2c-3,0-6,0-9,0c-1.4,0-2.5-1.2-2.6-2.7c0-0.8,0-1.6,0-2.3
			c0-1.5,1.2-2.8,2.7-2.8c1.5,0,3,0,4.4,0c1.4,0,2.8,0,4.1,0c1.8,0,2.9,1.1,2.9,2.9C46.2,32.8,46.3,33.7,46.1,34.6z"/>
		<path class="st0" d="M55.9,30c-2.9,0-5.2,2.4-5.2,5.3c0,2.9,2.4,5.3,5.3,5.2c2.9,0,5.2-2.4,5.2-5.3C61.1,32.3,58.8,29.9,55.9,30z
			 M55.9,38.3c-1.7,0-3.1-1.4-3.1-3.1c0-1.7,1.4-3.1,3.1-3.1c1.7,0,3,1.4,3.1,3.1C59,36.9,57.6,38.3,55.9,38.3z"/>
		<path class="st0" d="M18.5,30c-2.9,0-5.3,2.3-5.3,5.3c0,2.9,2.4,5.3,5.3,5.3c2.9,0,5.3-2.4,5.3-5.3C23.8,32.3,21.4,30,18.5,30z
			 M18.5,38.3c-1.7,0-3.1-1.4-3.1-3.1c0-1.7,1.4-3.1,3.1-3.1c1.7,0,3.1,1.4,3.1,3.1C21.6,36.9,20.2,38.3,18.5,38.3z"/>
		<path class="st0" d="M36.2,32.7c0,0.7,0,1.4,0,2c0,0.3,0,0.4-0.4,0.4c-1,0-1,0-1-1c0-1.1,0-2.3,0-3.4c0-0.3,0-0.5,0.4-0.5
			c1,0,1,0,1,1C36.2,31.7,36.2,32.2,36.2,32.7z"/>
		<path class="st0" d="M30.7,35.9c0,0.4-0.1,0.5-0.5,0.5c-1.7,0-3.3,0-5,0c-0.3,0-0.5,0-0.4-0.4c0.3-2.9-0.9-5-3.4-6.4
			c0,0,0-0.1-0.1-0.1c0.7,0,1.3,0,1.9,0c2.4,0,4.7,0,7.1,0c0.4,0,0.5,0.1,0.5,0.5C30.7,32,30.7,33.9,30.7,35.9z"/>
		<path class="st0" d="M12.1,36c0,0.3-0.1,0.4-0.4,0.4c-1,0-2,0-3,0c-0.3,0-0.4-0.1-0.4-0.4c0-2.1,0-4.1,0-6.2c0-0.2,0-0.3,0.3-0.3
			c2.3,0,4.7,0,7.2,0C13,31,11.8,33.1,12.1,36z"/>
		<path class="st0" d="M49,27.3c0,0.4-0.1,0.5-0.5,0.5c-1.1,0-2.1,0-3.2,0c-0.4,0-0.5-0.1-0.5-0.5c-0.3-1.7,0.6-2.9,1.7-3.9
			c0.5-0.5,0.7-1,0.7-1.7c-0.1-1.2,0-2.4,0-3.6c0-0.3,0.1-0.5,0.4-0.4c0.5,0.1,1.1-0.2,1.4,0.1c0.2,0.3,0.1,0.9,0.1,1.3
			c0,1.2,0,2.4,0,3.6c0,0,0,0,0,0C49,24.3,49,25.8,49,27.3z"/>
		<path class="st0" d="M65.8,34.2c-0.4,0-0.7,0-1.1,0c-0.2,0-0.4-0.2-0.4-0.4c0-0.3,0.1-0.4,0.4-0.4c0.8,0,1.5,0,2.3,0
			c0.2,0,0.4,0.1,0.4,0.4c0,0.3-0.2,0.5-0.4,0.5C66.5,34.3,66.2,34.3,65.8,34.2C65.8,34.2,65.8,34.2,65.8,34.2z"/>
		<path class="st0" d="M65.8,31.3c0.4,0,0.7,0,1.1,0c0.2,0,0.4,0.1,0.4,0.5c0,0.3-0.2,0.4-0.4,0.4c-0.8,0-1.5,0-2.3,0
			c-0.2,0-0.4-0.2-0.4-0.5c0-0.3,0.2-0.4,0.4-0.4C65,31.3,65.4,31.3,65.8,31.3z"/>
		<path class="st0" d="M42.4,32.5c0,0.7,0,1.3,0,2c0,0.4-0.1,0.5-0.5,0.5c-1,0-1,0-1-0.9c0-1.2,0-2.3,0-3.5c0-0.4,0.1-0.5,0.5-0.5
			c0.9,0,0.9,0,0.9,0.9C42.4,31.5,42.4,32,42.4,32.5z"/>
		<path class="st0" d="M56.6,23.7c0,0.3,0,0.7,0,1c0,0.2,0,0.4,0,0.6c0,0.8,0,0.7-0.8,0.8c-0.5,0-0.6-0.2-0.6-0.6c0-0.4,0-0.9,0-1.3
			c0-1,0-1,1-0.9C56.5,23.3,56.6,23.4,56.6,23.7z"/>
		<path class="st0" d="M68.4,21.6c0-0.2,0-0.5-0.1-0.7c-1.1-3.8-2.2-7.5-3.2-11.3c-0.1-0.3-0.2-0.5-0.6-0.5c-4.6,0-9.2,0-13.8,0
			c-0.5,0-0.6,0.1-0.6,0.6c0,3.2,0,6.4,0,9.6c0,0,0,0,0,0v4.8c0,1.6,0,3.2,0,4.8c0,0.5-0.2,0.6-0.6,0.6c-0.6,0-1.2,0-1.9,0
			c-0.3,0-0.4,0-0.4,0.4c0,2,0,4.1,0,6.1c0,0.3,0.1,0.4,0.4,0.4c0.6,0,1.1,0,1.7,0c0.3,0,0.4-0.1,0.4-0.4c-0.2-0.9,0-1.8,0.2-2.6
			c0.9-3.1,4-4.8,7.2-4.1c3.1,0.6,5,3.2,4.9,6.3c0,0.4,0.1,0.9,0.5,0.9c1.8,0,3.5,0,5.3,0c0.4,0,0.5-0.2,0.5-0.5
			C68.4,31.1,68.4,26.4,68.4,21.6z"/>
		<path class="st0" d="M55.8,20.4c-0.4,0-0.5-0.1-0.5-0.5c0-2.5,0-5.1,0-7.6c0-0.4,0.1-0.5,0.5-0.5c2.7,0,5.5,0,8.2,0
			c0.2,0,0.5,0,0.6,0.3c0.7,2.7,1.4,5.4,2.1,8.1c0,0.1,0,0.1,0,0.2h-2C61.7,20.4,58.7,20.4,55.8,20.4z"/>
		<path class="st0" d="M44.3,30.2c0.4,0,0.8,0.3,0.8,0.8c0,0.4-0.3,0.8-0.8,0.8c-0.5,0-0.8-0.3-0.8-0.7
			C43.5,30.6,43.8,30.2,44.3,30.2z"/>
		<path class="st0" d="M39.9,11.2c0-0.5-0.1-1,0-1.5c0.1-0.6-0.2-1-0.8-1.2c-0.3-0.1-0.7-0.2-1-0.3c-0.2,0-0.3,0-0.3-0.2
			c-0.2-0.9-0.8-1.3-1.6-1.5c-0.6-0.2-1.2-0.3-1.8-0.4C34.1,6.1,34,6,34,5.7c0-0.5-0.3-0.9-0.8-1.1c-0.7-0.4-1.3-0.2-1.9,0.1
			c-0.2-2-0.7-2.9-1.8-3.3c-1.1-0.4-1.8,0.1-2.5,1c0.1-0.9,0-1.1-0.7-1.3c-0.3-0.1-0.6-0.2-0.9,0c-0.7,0.4-1.2,0-1.8-0.3
			c-0.7-0.5-1-0.4-1.7,0.1c-0.2,0.1-0.3,0.3-0.4,0.5c-0.6,0.6-1.3,1.2-2.2,1.3c-1,0.2-1.8,0.8-2.3,1.7c-0.3,0.6-0.8,0.9-1.5,1
			c-0.9,0.1-1.6,0.5-2,1.3c-0.2,0.4-0.3,0.5-0.7,0.3c-0.9-0.3-1.8,0.4-1.6,1.3c0.1,0.4-0.1,0.5-0.3,0.7c-0.3,0.2-0.5,0.3-0.9,0.3
			c-0.5,0-1,0.2-1.5,0.4c-0.2,0.1-0.5,0.4-0.3,0.6c0.4,0.4,0.1,0.6-0.2,0.8c-0.2,0.1-0.4,0.3-0.7,0.6h0.8c6.6,0,13.1,0,19.7,0
			c3.8,0,7.6,0,11.4,0C39.8,11.8,39.9,11.7,39.9,11.2z"/>
	</g>
	<g>
		<path class="st1" d="M16,18c-0.7-0.2-1.4-0.3-2-0.2c-0.7,0.1-1.3,0.3-1.9,0.6s-1.1,0.8-1.5,1.3c-0.4,0.5-0.7,1.2-0.8,1.9
			c-0.1,0.4,0,0.7,0.2,1.1c0.2,0.4,0.5,0.6,1,0.7c0.3,0.1,0.5,0.1,0.8,0.1c0.3,0,0.6,0,0.9-0.1c0.3-0.1,0.7-0.2,1.1-0.3
			c0.4-0.1,0.9-0.4,1.5-0.6c-0.1,0.3-0.2,0.6-0.3,0.9c-0.1,0.2-0.2,0.5-0.3,0.7s-0.2,0.4-0.4,0.7c-0.1,0.2-0.3,0.5-0.5,0.8
			c-0.4,0.2-0.8,0.4-1.3,0.5c-0.5,0.1-0.9,0.1-1.3,0.2c-0.8,0-1.5-0.1-2.1-0.4s-1.1-0.6-1.5-1c-0.4-0.4-0.7-1-0.9-1.6
			c-0.2-0.6-0.2-1.3-0.1-2c0.1-0.8,0.3-1.5,0.6-2.2c0.3-0.7,0.7-1.3,1.2-1.9s1-1.1,1.7-1.5c0.6-0.4,1.3-0.7,2-0.9
			c0.5-0.1,0.9-0.2,1.4-0.3c0.5-0.1,0.9-0.1,1.4-0.1c0.4,0,0.9,0,1.3,0c0.4,0,0.8,0.1,1.1,0.1c-0.2,0.4-0.3,0.8-0.4,1.1
			c-0.1,0.3-0.2,0.6-0.3,0.8c-0.1,0.2-0.2,0.5-0.3,0.8C16.2,17.3,16.1,17.6,16,18z"/>
		<path class="st1" d="M15.9,25.9c0.4-1,0.7-2,1.1-3c0.3-1,0.7-1.9,1-2.9c0.3-0.9,0.7-1.9,1.1-2.8c0.4-0.9,0.8-1.9,1.2-2.8
			c0.6-0.1,1.2-0.1,1.7-0.1c0.5,0,1.1,0,1.7,0.1c0,0.4,0,0.8,0.1,1.2c0,0.4,0.1,0.9,0.1,1.3c0,0.4,0.1,0.9,0.1,1.3
			c0,0.4,0.1,0.8,0.1,1.2c0.5-0.8,1-1.6,1.4-2.5s1-1.7,1.4-2.5c0.3,0,0.6-0.1,0.9-0.1s0.5,0,0.8,0c0.3,0,0.5,0,0.8,0
			c0.3,0,0.6,0,0.9,0c-0.1,0.9-0.2,1.9-0.3,2.8c-0.1,1-0.2,2-0.3,2.9c-0.1,1-0.2,2-0.3,2.9c-0.1,1-0.2,1.9-0.3,2.8c-0.5,0-1,0-1.5,0
			c-0.5,0-0.9,0-1.5,0.1c0-0.4,0-0.9,0.1-1.4c0-0.5,0-1,0.1-1.5c0-0.5,0-1,0.1-1.5s0.1-0.9,0.1-1.4c-0.5,0.9-1,1.9-1.5,2.8
			c-0.5,1-1,1.9-1.6,2.8c-0.2,0-0.4,0-0.5,0c-0.1,0-0.3,0-0.4,0c-0.1,0-0.2,0-0.4,0c-0.1,0-0.3,0-0.5,0c0-0.4-0.1-0.9-0.1-1.4
			c0-0.5-0.1-1-0.1-1.4c0-0.5,0-1-0.1-1.4s0-0.9,0-1.4c-0.5,1-0.9,2-1.2,3c-0.3,0.9-0.7,1.8-1,2.7c-0.5-0.1-1-0.1-1.5-0.1
			C16.9,25.9,16.4,25.9,15.9,25.9z"/>
		<path class="st1" d="M42.4,14.3c-0.5,1-1.1,1.9-1.6,2.8s-1,1.8-1.5,2.8c-0.5,0.9-1,1.9-1.6,2.9c-0.5,1-1.1,2-1.7,3.1
			c-0.6,0-1.1,0-1.6,0s-1,0-1.5,0.1c0.2-0.4,0.4-0.9,0.7-1.4c0.2-0.5,0.5-1.1,0.8-1.6c-0.1,0-0.3,0-0.4,0c-0.2,0-0.3,0-0.4,0
			c-0.1-0.3-0.1-0.8-0.2-1.4c-0.1-0.6-0.2-1.3-0.2-2.1s-0.1-1.6-0.2-2.5c-0.1-0.9-0.1-1.8-0.2-2.6c0.3,0,0.6-0.1,0.9-0.1
			c0.3,0,0.6,0,0.9,0s0.6,0,0.9,0c0.3,0,0.6,0,0.8,0.1c0,0.4-0.1,0.8-0.1,1.3c0,0.4,0,0.9,0,1.3c0,0.5,0,0.9,0,1.3
			c0,0.4,0,0.9,0.1,1.3c0.2-0.4,0.4-0.9,0.7-1.3c0.2-0.5,0.5-0.9,0.7-1.4c0.2-0.5,0.4-0.9,0.6-1.3c0.2-0.4,0.4-0.8,0.6-1.1
			c0.6-0.1,1.2-0.1,1.8-0.1S41.8,14.3,42.4,14.3z"/>
	</g>
</g>
</svg>
