<?xml version="1.0" encoding="utf-8"?>
<!-- Generator: Adobe Illustrator 26.4.1, SVG Export Plug-In . SVG Version: 6.00 Build 0)  -->
<svg version="1.1" id="Слой_1" xmlns="http://www.w3.org/2000/svg" xmlns:xlink="http://www.w3.org/1999/xlink" x="0px" y="0px"
	 viewBox="0 0 28 28" style="enable-background:new 0 0 28 28;" xml:space="preserve">
<style type="text/css">
	.st0{clip-path:url(#SVGID_00000134230028698722417540000011569216152751850633_);}
	.st1{fill:#FF3000;}
</style>
<g>
	<g>
		<defs>
			<rect id="SVGID_1_" width="28" height="28"/>
		</defs>
		<clipPath id="SVGID_00000132065512920492490540000011408186068077192094_">
			<use xlink:href="#SVGID_1_"  style="overflow:visible;"/>
		</clipPath>
		<g style="clip-path:url(#SVGID_00000132065512920492490540000011408186068077192094_);">
			<path id="Vector" class="st1" d="M25.9,18.6l-6.2-2.8l0,0c-0.3-0.2-0.6-0.2-1-0.2c-0.3,0-0.7,0.2-1,0.3L17.6,16l-3.2,2.7
				c-2-1-4.2-3-5.1-5l2.7-3.3l0.1-0.1c0.2-0.3,0.3-0.6,0.3-1s0-0.7-0.2-1l0,0L9.4,2.1C9.3,1.7,9,1.3,8.6,1.1
				C8.2,0.9,7.8,0.8,7.3,0.8C5.5,1,3.8,1.9,2.6,3.3s-1.8,3.1-1.8,5c0,10.4,8.6,19,19,19c1.8,0,3.5-0.6,4.9-1.8
				c1.4-1.2,2.2-2.8,2.5-4.6c0.1-0.5,0-0.9-0.2-1.3C26.6,19,26.3,18.7,25.9,18.6z M19.8,25c-4.5,0-8.7-1.8-11.9-5s-5-7.4-5-11.9
				c0-1.3,0.5-2.6,1.3-3.5s2-1.6,3.3-1.8l0,0L10.2,9l-2.7,3.3l-0.1,0.1c-0.2,0.4-0.2,0.7-0.3,1.1c0,0.4,0.1,0.7,0.2,1
				c1.2,2.4,3.7,4.9,6.1,6.1c0.3,0.2,0.7,0.2,1,0.2c0.4,0,0.7-0.2,1-0.3l0.1-0.1l3.2-2.7l6.2,2.8l0,0c-0.2,1.3-0.8,2.5-1.8,3.3
				C22.3,24.6,21.1,25,19.8,25z"/>
		</g>
	</g>
</g>
</svg>
