<?xml version="1.0" encoding="utf-8"?>
<!-- Generator: Adobe Illustrator 26.4.1, SVG Export Plug-In . SVG Version: 6.00 Build 0)  -->
<svg version="1.1" id="Слой_1" xmlns="http://www.w3.org/2000/svg" xmlns:xlink="http://www.w3.org/1999/xlink" x="0px" y="0px"
	 viewBox="0 0 50 50" style="enable-background:new 0 0 50 50;" xml:space="preserve">
<style type="text/css">
	.st0{clip-path:url(#SVGID_00000039814479512669026940000012589269568877947541_);}
	.st1{fill:#FFFFFF;}
</style>
<g>
	<g>
		<defs>
			<rect id="SVGID_1_" x="2" y="2" width="45.9" height="45.9"/>
		</defs>
		<clipPath id="SVGID_00000026154497262761173560000017514369304516104860_">
			<use xlink:href="#SVGID_1_"  style="overflow:visible;"/>
		</clipPath>
		<g style="clip-path:url(#SVGID_00000026154497262761173560000017514369304516104860_);">
			<path id="Vector" class="st1" d="M25,3.6c11.8,0,21.4,9.6,21.4,21.4S36.8,46.4,25,46.4S3.6,36.8,3.6,25S13.2,3.6,25,3.6z M25,7.9
				c-4.5,0-8.9,1.8-12.1,5S7.9,20.5,7.9,25s1.8,8.9,5,12.1c3.1,3.2,7.5,5,12.1,5s8.9-1.8,12.1-5s5-7.5,5-12.1s-1.8-8.9-5-12.1
				S29.5,7.9,25,7.9z M25,12.1c0.5,0,1,0.2,1.4,0.5c0.4,0.3,0.7,0.9,0.7,1.4v0.3v9.8l5.8,5.8c0.4,0.4,0.6,0.9,0.7,1.4
				c0,0.5-0.2,1-0.5,1.5c-0.4,0.4-0.9,0.7-1.4,0.7c-0.5,0.1-1.1-0.1-1.5-0.5L30,32.9l-6.4-6.4c-0.3-0.3-0.5-0.8-0.6-1.2v-0.3V14.3
				c0-0.6,0.2-1.1,0.7-1.5C23.9,12.4,24.4,12.1,25,12.1z"/>
		</g>
	</g>
</g>
</svg>
