<?xml version="1.0" encoding="utf-8"?>
<!-- Generator: Adobe Illustrator 26.4.1, SVG Export Plug-In . SVG Version: 6.00 Build 0)  -->
<svg version="1.1" id="Слой_1" xmlns="http://www.w3.org/2000/svg" xmlns:xlink="http://www.w3.org/1999/xlink" x="0px" y="0px"
	 viewBox="0 0 28.5 20" style="enable-background:new 0 0 28.5 20;" xml:space="preserve">
<style type="text/css">
	.st0{fill:#FF3000;}
</style>
<g>
	<path class="st0" d="M7.9,3.3c-0.5-0.2-1-0.2-1.5-0.1S5.4,3.4,5,3.6c-0.4,0.2-0.8,0.6-1.1,1C3.6,5,3.4,5.5,3.3,6
		c0,0.3,0,0.5,0.1,0.8c0.1,0.3,0.4,0.4,0.7,0.5c0.2,0,0.4,0.1,0.6,0.1s0.4,0,0.7-0.1S6,7.2,6.3,7.1C6.6,7,7,6.9,7.4,6.7
		C7.3,6.9,7.2,7.1,7.1,7.3S7,7.7,6.9,7.8C6.8,8,6.7,8.2,6.6,8.3C6.5,8.5,6.4,8.7,6.2,8.9c-0.3,0.2-0.6,0.3-1,0.3
		C4.9,9.3,4.6,9.4,4.3,9.4c-0.6,0-1.1-0.1-1.5-0.3C2.4,8.9,2,8.7,1.7,8.3S1.2,7.6,1.1,7.2S0.9,6.2,1,5.7C1,5.1,1.2,4.5,1.4,4
		C1.7,3.5,2,3,2.4,2.6c0.4-0.4,0.8-0.8,1.2-1.1c0.5-0.3,1-0.5,1.5-0.7c0.3-0.1,0.7-0.2,1-0.2c0.3,0,0.7-0.1,1-0.1c0.3,0,0.6,0,0.9,0
		c0.3,0,0.6,0.1,0.8,0.1C8.8,0.9,8.7,1.2,8.6,1.4C8.5,1.6,8.4,1.8,8.4,2C8.3,2.2,8.2,2.4,8.2,2.6S8,3,7.9,3.3z"/>
	<path class="st0" d="M7.8,9.2C8.1,8.4,8.4,7.7,8.6,7c0.3-0.7,0.5-1.4,0.8-2.1c0.3-0.7,0.5-1.4,0.8-2.1s0.6-1.4,0.9-2.1
		c0.4,0,0.9-0.1,1.2-0.1s0.8,0,1.2,0c0,0.3,0,0.6,0.1,0.9c0,0.3,0,0.6,0.1,1c0,0.3,0,0.7,0.1,1c0,0.3,0.1,0.6,0.1,0.9
		c0.4-0.6,0.7-1.2,1.1-1.8c0.4-0.7,0.7-1.3,1.1-1.8c0.2,0,0.5-0.1,0.6-0.1c0.2,0,0.4,0,0.6,0c0.2,0,0.4,0,0.6,0c0.2,0,0.4,0,0.7,0
		c-0.1,0.7-0.2,1.4-0.3,2.1C18.1,3.5,18,4.2,18,4.9c-0.1,0.7-0.2,1.5-0.2,2.2c-0.1,0.7-0.2,1.4-0.2,2.1c-0.4,0-0.7,0-1.1,0
		c-0.3,0-0.7,0-1.1,0c0-0.3,0-0.7,0-1c0-0.4,0-0.7,0-1.1s0-0.7,0.1-1.1c0-0.4,0-0.7,0.1-1c-0.4,0.7-0.8,1.4-1.1,2.1
		s-0.8,1.4-1.2,2.1c-0.2,0-0.3,0-0.4,0c-0.1,0-0.2,0-0.3,0c-0.1,0-0.2,0-0.3,0c-0.1,0-0.2,0-0.3,0c0-0.3-0.1-0.7-0.1-1
		c0-0.4,0-0.7-0.1-1.1c0-0.4,0-0.7,0-1.1c0-0.4,0-0.7,0-1c-0.4,0.8-0.7,1.5-0.9,2.2c-0.2,0.7-0.5,1.4-0.7,2c-0.4,0-0.8-0.1-1.1-0.1
		S8.2,9.2,7.8,9.2z"/>
	<path class="st0" d="M27.6,0.6c-0.4,0.7-0.8,1.4-1.2,2.1s-0.8,1.4-1.1,2.1c-0.4,0.7-0.8,1.4-1.2,2.1c-0.4,0.7-0.8,1.5-1.3,2.3
		c-0.4,0-0.8,0-1.2,0s-0.7,0-1.1,0.1c0.2-0.3,0.3-0.7,0.5-1c0.2-0.4,0.4-0.8,0.6-1.2c-0.1,0-0.2,0-0.3,0C21.1,7,21,7,21,7
		c0-0.2-0.1-0.6-0.2-1.1c-0.1-0.5-0.1-1-0.2-1.6c-0.1-0.6-0.1-1.2-0.2-1.9c-0.1-0.7-0.1-1.3-0.1-1.9c0.2,0,0.4,0,0.6-0.1
		c0.2,0,0.5,0,0.7,0c0.2,0,0.5,0,0.7,0c0.2,0,0.4,0,0.6,0.1c0,0.3-0.1,0.6-0.1,1c0,0.3,0,0.7,0,1c0,0.3,0,0.7,0,1
		c0,0.3,0,0.6,0.1,0.9c0.2-0.3,0.3-0.6,0.5-1c0.2-0.3,0.3-0.7,0.5-1s0.3-0.7,0.5-1c0.2-0.3,0.3-0.6,0.4-0.8c0.5-0.1,0.9-0.1,1.4-0.1
		C26.7,0.5,27.1,0.6,27.6,0.6z"/>
	<path class="st0" d="M6,14.2c0.7,0,1.3-0.1,1.9-0.1c0.6,0,1.2,0,1.7,0c-0.1,0.3-0.1,0.6-0.2,1c-0.1,0.3-0.2,0.6-0.3,0.9
		c-0.6,0-1.2,0-1.8,0c-0.6,0-1.2,0-1.9,0c0.1-0.3,0.1-0.6,0.2-0.9C5.8,14.9,5.9,14.6,6,14.2z"/>
	<path class="st0" d="M10.2,12.6c0.2-0.2,0.3-0.4,0.5-0.6c0.2-0.2,0.3-0.4,0.5-0.5c0.2-0.2,0.3-0.3,0.5-0.5s0.3-0.3,0.5-0.5
		c0.4,0,0.8-0.1,1.2-0.1c0.4,0,0.9,0,1.2,0.1c-0.2,0.7-0.4,1.4-0.7,2.1c-0.2,0.7-0.4,1.5-0.6,2.2s-0.4,1.5-0.6,2.2
		c-0.2,0.7-0.4,1.4-0.5,2.1c-0.2,0-0.4,0-0.6,0c-0.2,0-0.3,0-0.5,0s-0.3,0-0.5,0s-0.4,0-0.6,0c0.1-0.5,0.2-1,0.3-1.6
		c0.1-0.6,0.2-1.2,0.4-1.8c0.1-0.6,0.3-1.2,0.4-1.8c0.1-0.6,0.3-1.1,0.4-1.5c-0.1,0-0.3,0-0.4,0c-0.1,0-0.2,0-0.3,0
		c-0.1,0-0.2,0-0.3,0S10.3,12.6,10.2,12.6z"/>
	<path class="st0" d="M16.1,18.5c0.5-0.3,1-0.6,1.4-1c0.4-0.4,0.7-0.7,1-1.1c-0.3,0.1-0.6,0.1-0.9,0.1c-0.3,0-0.7,0-1-0.1
		c-0.3-0.1-0.6-0.2-0.8-0.4c-0.2-0.2-0.4-0.4-0.6-0.7c-0.2-0.3-0.3-0.7-0.3-1.2c0-0.5,0.1-0.9,0.3-1.4c0.2-0.4,0.4-0.8,0.7-1.1
		c0.3-0.3,0.6-0.6,0.9-0.7c0.4-0.2,0.7-0.3,1.1-0.4c0.4-0.1,0.8-0.1,1.3-0.1c0.3,0,0.7,0.1,1,0.2c0.4,0.1,0.7,0.3,1,0.5
		c0.3,0.3,0.6,0.6,0.8,1c0.2,0.4,0.3,0.9,0.2,1.5c0,0.5-0.2,1-0.3,1.5c-0.2,0.5-0.5,1-0.9,1.6c-0.4,0.5-0.9,1-1.4,1.5
		s-1.3,1-2.1,1.4c-0.2-0.2-0.4-0.4-0.7-0.5S16.3,18.6,16.1,18.5z M18.8,12.6c-0.2,0-0.4,0-0.5,0.1c-0.2,0-0.3,0.1-0.5,0.2
		c-0.1,0.1-0.3,0.2-0.4,0.3c-0.1,0.1-0.2,0.3-0.2,0.4c0,0.2,0,0.3,0,0.5s0.1,0.3,0.2,0.4c0.1,0.1,0.2,0.2,0.3,0.3
		c0.1,0.1,0.3,0.1,0.5,0.1c0.2,0,0.4,0,0.5-0.1c0.2,0,0.3-0.1,0.5-0.2c0.1-0.1,0.3-0.2,0.4-0.3c0.1-0.1,0.2-0.3,0.2-0.4
		c0-0.2,0.1-0.3,0-0.5c0-0.1-0.1-0.3-0.2-0.4s-0.2-0.2-0.4-0.3C19.1,12.7,19,12.6,18.8,12.6z"/>
</g>
</svg>
