<?xml version="1.0" encoding="utf-8"?>
<!-- Generator: Adobe Illustrator 26.4.1, SVG Export Plug-In . SVG Version: 6.00 Build 0)  -->
<svg version="1.1" id="Слой_1" xmlns="http://www.w3.org/2000/svg" xmlns:xlink="http://www.w3.org/1999/xlink" x="0px" y="0px"
	 viewBox="0 0 50 50" style="enable-background:new 0 0 50 50;" xml:space="preserve">
<style type="text/css">
	.st0{clip-path:url(#SVGID_00000170254156074554734440000008050103183218625452_);}
	.st1{fill:#FFFFFF;}
</style>
<g>
	<g>
		<defs>
			<rect id="SVGID_1_" x="2.6" y="2.6" width="44.7" height="44.7"/>
		</defs>
		<clipPath id="SVGID_00000029749420718556141670000014630910845062292142_">
			<use xlink:href="#SVGID_1_"  style="overflow:visible;"/>
		</clipPath>
		<g style="clip-path:url(#SVGID_00000029749420718556141670000014630910845062292142_);">
			<path id="Vector" class="st1" d="M42.2,13.4H9.4c-0.4,0-0.8-0.2-1.2-0.5c-0.3-0.3-0.4-0.7-0.4-1.2s0.2-0.9,0.4-1.2
				C8.6,10.2,9,10,9.4,10h27.9c0.4,0,0.8-0.2,1.2-0.5c0.3-0.3,0.5-0.8,0.5-1.2s-0.2-0.9-0.5-1.2c-0.3-0.3-0.7-0.5-1.2-0.5H9.4
				c-1.3,0-2.6,0.5-3.5,1.5c-0.9,1-1.4,2.2-1.4,3.5v26.6c0,1.3,0.5,2.6,1.4,3.5s2.2,1.5,3.5,1.5h32.8c0.9,0,1.7-0.3,2.3-1
				s1-1.5,1-2.4V16.7c0-0.9-0.3-1.7-1-2.4C43.9,13.8,43.1,13.4,42.2,13.4z M42.2,40H9.4c-0.4,0-0.8-0.2-1.2-0.5
				c-0.3-0.3-0.4-0.7-0.4-1.2V16.4c0.5,0.2,1.1,0.3,1.7,0.3h32.8L42.2,40L42.2,40z M32.3,27.5c0-0.5,0.1-1,0.4-1.4
				c0.3-0.4,0.6-0.7,1.1-0.9c0.4-0.2,1-0.3,1.4-0.1c0.4,0.1,0.9,0.3,1.3,0.7c0.3,0.3,0.6,0.8,0.6,1.3c0.1,0.4,0.1,1-0.1,1.4
				c-0.2,0.4-0.5,0.8-0.9,1.1c-0.4,0.3-0.9,0.4-1.3,0.4c-0.6,0-1.3-0.3-1.7-0.7C32.7,28.8,32.3,28.1,32.3,27.5z"/>
		</g>
	</g>
</g>
</svg>
