<?xml version="1.0" encoding="utf-8"?>
<!-- Generator: Adobe Illustrator 26.4.1, SVG Export Plug-In . SVG Version: 6.00 Build 0)  -->
<svg version="1.1" id="wa" xmlns="http://www.w3.org/2000/svg" xmlns:xlink="http://www.w3.org/1999/xlink" x="0px" y="0px"
	 viewBox="0 0 48 48" style="enable-background:new 0 0 48 48;" xml:space="preserve">
<style type="text/css">
	.st0{fill-rule:evenodd;clip-rule:evenodd;}
</style>
<g id="wa_00000003094218988302170110000002729350386608031387_">
	<g>
		<path class="st0" d="M40.3,7.6C36,3.3,30.2,0.9,24.1,0.9C11.5,0.9,1.2,11.2,1.2,23.8c0,4,1.1,8,3.1,11.5L1,47.1l12.1-3.2
			c3.3,1.8,7.1,2.8,11,2.8h0C36.7,46.7,47,36.5,47,23.8C47,17.7,44.6,11.9,40.3,7.6z M24.1,42.9L24.1,42.9c-3.4,0-6.8-0.9-9.7-2.7
			l-0.7-0.4l-7.2,1.9l1.9-7L8,33.9C6,30.9,5,27.4,5,23.8c0-10.5,8.6-19,19.1-19c5.1,0,9.9,2,13.5,5.6c3.6,3.6,5.6,8.4,5.6,13.5
			C43.1,34.3,34.6,42.9,24.1,42.9z M34.5,28.6c-0.6-0.3-3.4-1.7-3.9-1.9c-0.5-0.2-0.9-0.3-1.3,0.3c-0.4,0.6-1.5,1.9-1.8,2.3
			c-0.3,0.4-0.7,0.4-1.2,0.1c-0.6-0.3-2.4-0.9-4.6-2.8c-1.7-1.5-2.9-3.4-3.2-4c-0.3-0.6,0-0.9,0.3-1.2c0.3-0.3,0.6-0.7,0.9-1
			c0.3-0.3,0.4-0.6,0.6-1c0.2-0.4,0.1-0.7,0-1c-0.1-0.3-1.3-3.1-1.8-4.2c-0.5-1.1-0.9-1-1.3-1c-0.3,0-0.7,0-1.1,0
			c-0.4,0-1,0.1-1.5,0.7s-2,2-2,4.8c0,2.8,2.1,5.5,2.3,5.9c0.3,0.4,4,6.2,9.8,8.6c1.4,0.6,2.4,0.9,3.3,1.2c1.4,0.4,2.6,0.4,3.6,0.2
			c1.1-0.2,3.4-1.4,3.9-2.7c0.5-1.3,0.5-2.5,0.3-2.7C35.5,29,35.1,28.9,34.5,28.6z"/>
	</g>
</g>
</svg>
