<?xml version="1.0" standalone="no"?>
<!DOCTYPE svg PUBLIC "-//W3C//DTD SVG 20010904//EN"
 "http://www.w3.org/TR/2001/REC-SVG-20010904/DTD/svg10.dtd">
<svg version="1.0" xmlns="http://www.w3.org/2000/svg"
 width="700.000000pt" height="700.000000pt" viewBox="0 0 700.000000 700.000000"
 preserveAspectRatio="xMidYMid meet">
<metadata>
Created by potrace 1.14, written by Peter Selinger 2001-2017
</metadata>
<g transform="translate(0.000000,700.000000) scale(0.100000,-0.100000)"
fill="#000000" stroke="none">
<path d="M5289 5976 c-3 -3 -148 -14 -207 -16 -11 0 -12 -27 -8 -137 8 -168
19 -334 31 -448 7 -63 18 -188 30 -330 3 -38 8 -88 10 -110 3 -22 7 -65 10
-95 9 -98 28 -263 40 -348 7 -44 17 -121 20 -152 2 -14 3 -28 4 -32 1 -6 72
-10 139 -9 18 1 21 -2 13 -17 -5 -9 -22 -46 -39 -82 -57 -123 -110 -235 -166
-353 -31 -64 -56 -120 -56 -122 0 -3 33 -3 73 0 96 7 495 8 506 1 5 -4 36 45
69 106 33 62 74 140 92 173 18 33 47 87 65 120 88 164 585 1075 604 1105 11
19 24 42 28 50 8 16 255 469 322 589 23 41 40 75 39 77 -2 1 -36 5 -77 9 -41
4 -84 9 -95 11 -24 5 -192 5 -251 0 -151 -13 -202 -17 -220 -21 -11 -2 -23 -4
-26 -4 -4 -1 -116 -220 -249 -487 -133 -267 -244 -484 -246 -482 -21 22 -21
933 1 968 8 12 -9 20 -52 26 -49 6 -399 15 -404 10z"/>
<path d="M1525 5963 c-78 -7 -271 -44 -360 -70 -125 -36 -198 -65 -284 -112
-280 -155 -480 -359 -628 -641 -271 -517 -202 -1063 166 -1309 116 -77 211
-113 371 -137 175 -28 468 11 614 81 44 21 57 35 94 97 24 40 58 98 77 128 54
87 171 357 161 368 -3 2 -17 -3 -33 -12 -37 -21 -182 -79 -263 -105 -57 -19
-94 -29 -175 -47 -84 -19 -157 -22 -255 -10 -86 10 -126 22 -182 58 -149 94
-168 288 -51 522 98 196 231 329 428 429 167 83 407 113 593 73 40 -9 75 -16
77 -16 2 0 9 17 16 38 6 20 25 64 40 97 15 33 35 82 44 108 8 27 49 134 90
239 41 104 75 193 75 196 0 4 -22 8 -49 10 -28 2 -60 6 -73 9 -26 6 -431 11
-493 6z"/>
<path d="M2818 5945 c-2 -2 -30 -5 -62 -7 l-59 -4 -74 -170 c-41 -93 -78 -178
-82 -189 -5 -11 -28 -65 -51 -120 -98 -233 -196 -486 -302 -780 -28 -77 -65
-180 -83 -230 -18 -49 -43 -119 -55 -155 -12 -36 -26 -74 -30 -85 -5 -11 -26
-72 -48 -135 -22 -63 -58 -166 -81 -228 l-40 -112 27 4 c15 2 58 7 95 11 37 3
78 9 90 12 32 9 211 11 290 4 42 -4 71 -3 76 4 9 11 136 349 169 450 37 114
147 377 230 555 l31 65 1 -240 c2 -293 9 -478 25 -635 2 -19 6 -71 10 -115 8
-93 10 -98 37 -89 19 6 193 7 268 1 34 -3 37 0 86 78 70 112 86 139 137 230
76 137 92 166 167 310 40 77 86 165 103 195 17 30 43 78 58 105 58 109 74 135
82 135 5 0 6 -3 4 -7 -3 -5 -8 -71 -12 -148 -4 -77 -8 -167 -10 -200 -2 -33
-6 -121 -10 -195 -3 -74 -8 -162 -10 -195 -2 -33 -7 -119 -10 -192 l-7 -132
124 7 c68 4 191 7 275 7 l152 0 5 35 c9 54 15 110 21 175 3 33 8 76 10 95 3
19 7 58 10 85 3 28 7 70 10 95 2 24 9 78 14 119 6 42 13 103 16 136 4 33 8 71
10 85 2 14 7 50 10 80 3 30 8 66 10 80 3 24 15 128 20 180 4 35 25 218 30 255
2 17 7 57 10 90 4 33 8 71 11 85 2 14 6 50 9 80 3 30 8 71 11 90 2 19 7 55 9
79 2 24 7 60 9 80 3 20 8 61 11 91 4 30 10 81 14 112 5 38 4 58 -3 61 -6 2
-99 5 -206 6 -243 2 -395 -16 -424 -51 -24 -30 -157 -254 -233 -393 -90 -165
-111 -201 -170 -305 -64 -111 -135 -222 -138 -218 -2 2 -6 41 -10 88 -9 105
-14 166 -30 350 -5 55 -8 96 -21 310 -7 123 -11 191 -13 201 -1 3 -7 6 -13 7
-27 4 -496 10 -500 7z"/>
<path d="M4697 3384 c-1 -1 -33 -4 -72 -7 -287 -24 -521 -123 -696 -297 -81
-79 -118 -134 -174 -253 -88 -190 -115 -343 -92 -532 11 -89 76 -233 135 -297
78 -85 207 -161 327 -193 91 -25 264 -30 355 -11 41 9 79 16 83 16 10 0 -72
-100 -146 -179 -83 -88 -204 -188 -329 -271 l-117 -79 56 -31 c47 -27 139 -94
277 -204 24 -18 24 -18 132 44 235 136 410 268 591 447 59 59 129 135 154 168
161 211 298 489 335 680 2 11 6 31 9 45 31 146 24 350 -15 458 -106 285 -342
458 -665 487 -86 8 -145 12 -148 9z m86 -614 c183 -73 216 -255 75 -416 -107
-121 -322 -174 -451 -110 -100 48 -163 147 -154 241 9 96 52 168 139 231 112
83 266 104 391 54z"/>
<path d="M3177 3354 c-1 -1 -52 -4 -113 -7 -62 -3 -120 -10 -130 -15 -23 -13
-250 -244 -321 -327 -131 -153 -161 -190 -158 -193 2 -2 76 -4 165 -4 160 0
162 0 157 -22 -3 -11 -33 -129 -67 -261 -63 -249 -91 -373 -135 -585 -14 -69
-27 -134 -30 -145 -25 -121 -36 -174 -41 -195 -3 -14 -20 -97 -39 -185 -19
-88 -41 -189 -49 -225 -8 -35 -13 -66 -10 -69 2 -2 23 -4 47 -3 56 3 465 2
497 -1 21 -2 26 4 36 43 12 44 103 421 109 450 2 8 20 80 40 160 20 80 38 152
40 161 2 10 18 68 35 130 18 63 33 121 35 129 2 8 47 168 100 355 53 187 98
348 100 358 6 26 52 177 95 312 22 65 38 121 36 123 -7 6 -393 22 -399 16z"/>
<path d="M1797 2403 c-3 -2 -309 -17 -370 -17 -25 0 -30 -7 -56 -76 -44 -115
-111 -346 -111 -382 0 -12 68 -13 443 -11 243 1 452 2 464 2 19 1 26 13 47 80
25 79 91 333 100 381 l4 26 -259 0 c-143 0 -261 -1 -262 -3z"/>
</g>
</svg>
